<svg width="1512" height="889" viewBox="0 0 1512 889" fill="none" xmlns="http://www.w3.org/2000/svg">
<path opacity="0.0526316" d="M590.45 18.4476C596.727 15.0922 606.903 15.0923 613.18 18.4476L1537.39 512.507C1195.63 743.279 1067.02 805.8 896.577 855.161L-22.9318 363.614C-31.8513 358.846 -31.8514 351.115 -22.9319 346.347L590.45 18.4476Z" stroke="black" stroke-opacity="0.27" stroke-width="1.35652"/>
<path opacity="0.105263" d="M598.896 30.1805C605.172 26.8252 615.349 26.8252 621.626 30.1805L1520.42 510.653C1193.29 732.295 1069.86 792.213 905.883 839.262L11.789 361.301C2.8695 356.533 2.86948 348.802 11.789 344.034L598.896 30.1805Z" stroke="black" stroke-opacity="0.27" stroke-width="1.35652"/>
<path opacity="0.157895" d="M607.343 41.9139C613.62 38.5586 623.796 38.5586 630.073 41.9139L1503.45 508.8C1190.96 721.31 1072.71 778.627 915.191 823.363L46.5113 358.988C37.5918 354.22 37.5918 346.489 46.5114 341.721L607.343 41.9139Z" stroke="black" stroke-opacity="0.27" stroke-width="1.35652"/>
<path opacity="0.210526" d="M615.788 53.6468C622.065 50.2915 632.241 50.2915 638.518 53.6468L1486.48 506.946C1188.62 710.325 1075.56 765.039 924.497 807.464L81.2316 356.675C72.3121 351.907 72.312 344.176 81.2316 339.408L615.788 53.6468Z" stroke="black" stroke-opacity="0.27" stroke-width="1.35652"/>
<path opacity="0.263158" d="M624.234 65.3807C630.51 62.0253 640.687 62.0254 646.964 65.3807L1469.51 505.094C1186.28 699.342 1078.41 751.453 933.804 791.566L115.953 354.363C107.033 349.594 107.033 341.864 115.953 337.096L624.234 65.3807Z" stroke="black" stroke-opacity="0.27" stroke-width="1.35652"/>
<path opacity="0.315789" d="M632.68 77.1136C638.957 73.7583 649.133 73.7583 655.41 77.1136L1452.54 503.241C1183.94 688.358 1081.26 737.866 943.112 775.668L150.674 352.049C141.754 347.281 141.754 339.551 150.674 334.782L632.68 77.1136Z" stroke="black" stroke-opacity="0.27" stroke-width="1.35652"/>
<path opacity="0.368421" d="M641.127 88.8473C647.403 85.4919 657.58 85.4919 663.857 88.8473L1435.57 501.388C1181.6 677.374 1084.11 724.28 952.42 759.77L185.396 349.737C176.476 344.969 176.476 337.238 185.396 332.47L641.127 88.8473Z" stroke="black" stroke-opacity="0.27" stroke-width="1.35652"/>
<path opacity="0.421053" d="M649.572 100.58C655.848 97.2251 666.025 97.2251 672.301 100.58L1418.6 499.535C1179.26 666.391 1086.95 710.693 961.727 743.872L220.116 347.424C211.196 342.656 211.196 334.925 220.116 330.157L649.572 100.58Z" stroke="black" stroke-opacity="0.27" stroke-width="1.35652"/>
<path opacity="0.473684" d="M658.019 112.313C664.296 108.957 674.472 108.957 680.749 112.313L1401.64 497.681C1176.92 655.406 1089.8 697.105 971.036 727.973L254.838 345.11C245.919 340.342 245.919 332.611 254.838 327.843L658.019 112.313Z" stroke="black" stroke-opacity="0.27" stroke-width="1.35652"/>
<path opacity="0.526316" d="M666.464 124.046C672.741 120.691 682.917 120.691 689.194 124.046L1384.67 495.829C1174.58 644.424 1092.65 683.518 980.345 712.075L289.559 342.798C280.639 338.03 280.639 330.299 289.559 325.531L666.464 124.046Z" stroke="black" stroke-opacity="0.27" stroke-width="1.35652"/>
<path opacity="0.578947" d="M674.909 135.779C681.186 132.424 691.363 132.424 697.639 135.779L1367.7 493.976C1172.24 633.441 1095.5 669.931 989.653 696.178L324.279 340.485C315.36 335.717 315.36 327.986 324.279 323.218L674.909 135.779Z" stroke="black" stroke-opacity="0.27" stroke-width="1.35652"/>
<path opacity="0.631579" d="M683.357 147.512C689.633 144.157 699.81 144.157 706.087 147.512L1350.73 492.124C1169.9 622.459 1098.34 656.344 998.964 680.28L359.002 338.172C350.082 333.403 350.082 325.673 359.002 320.905L683.357 147.512Z" stroke="black" stroke-opacity="0.27" stroke-width="1.35652"/>
<path opacity="0.684211" d="M691.803 159.246C698.079 155.891 708.256 155.891 714.532 159.246L1333.76 490.272C1167.55 611.478 1101.19 642.757 1008.27 664.384L393.723 335.859C384.804 331.091 384.804 323.36 393.723 318.592L691.803 159.246Z" stroke="black" stroke-opacity="0.27" stroke-width="1.35652"/>
<path opacity="0.736842" d="M700.248 170.979C706.525 167.623 716.701 167.623 722.978 170.979L1316.8 488.419C1165.21 600.497 1104.03 629.17 1017.58 648.487L428.443 333.546C419.524 328.778 419.524 321.047 428.443 316.279L700.248 170.979Z" stroke="black" stroke-opacity="0.27" stroke-width="1.35652"/>
<path opacity="0.789474" d="M708.695 182.711C714.972 179.356 725.148 179.356 731.425 182.711L1299.83 486.567C1162.86 589.516 1106.88 615.582 1026.9 632.59L463.166 331.232C454.246 326.464 454.246 318.733 463.166 313.965L708.695 182.711Z" stroke="black" stroke-opacity="0.27" stroke-width="1.35652"/>
<path opacity="0.842105" d="M717.141 194.445C723.418 191.09 733.595 191.09 739.871 194.445L1282.87 484.717C1160.51 578.538 1109.72 601.995 1036.21 616.696L497.887 328.92C488.968 324.152 488.968 316.421 497.887 311.653L717.141 194.445Z" stroke="black" stroke-opacity="0.27" stroke-width="1.35652"/>
<path opacity="0.894737" d="M725.586 206.178C731.863 202.823 742.039 202.823 748.316 206.178L1265.9 482.866C1158.16 567.561 1112.57 588.407 1045.53 600.801L532.607 326.607C523.688 321.839 523.688 314.108 532.607 309.34L725.586 206.178Z" stroke="black" stroke-opacity="0.27" stroke-width="1.35652"/>
<path opacity="0.947368" d="M734.032 217.911C740.308 214.556 750.485 214.556 756.761 217.911L1248.94 481.016C1202.31 518.85 1168.9 542.311 1139.56 557.578C1110.32 572.787 1085.12 579.865 1054.84 584.908L567.328 324.294C558.408 319.526 558.408 311.795 567.328 307.027L734.032 217.911Z" stroke="black" stroke-opacity="0.27" stroke-width="1.35652"/>
<path d="M742.478 229.644C748.755 226.289 758.931 226.289 765.208 229.644L1231.98 479.167C1192.65 512.436 1164.2 532.96 1138.8 546.143C1113.49 559.271 1091.21 565.122 1064.16 569.016L602.049 321.981C593.13 317.212 593.13 309.482 602.049 304.714L742.478 229.644Z" stroke="black" stroke-opacity="0.27" stroke-width="1.35652"/>
</svg>
